<?xml version="1.0" encoding="UTF-8"?>
<svg id="Calque_1" data-name="Calque 1" xmlns="http://www.w3.org/2000/svg" viewBox="0 0 35.89 34.39">
  <path d="M32.39,18.28c-.12.87.21,2.23-.22,3.01s-1.34.64-2.02,1.03c-2.15,1.22-2.14,4.46.02,5.65.75.42,1.76.31,2.09,1.25.2.57.18,3.14.11,3.83-.08.74-.47,1.27-1.24,1.34l-29.93-.04c-.39-.14-.73-.41-.85-.82-.15-.52-.12-3.31-.06-3.97.12-1.37,1.51-1.12,2.39-1.72,2.03-1.39,1.81-4.5-.38-5.6-.7-.35-1.81-.3-1.99-1.28-.11-.61-.1-3.36-.01-4.01.07-.48.44-.79.84-1.01-.25-1.33-2.16-3.37-.4-4.34L28.16.02c.56-.1,1.1.19,1.4.66.22.35,1.42,3.23,1.46,3.56.13,1.22-.77,1.29-1.37,2.06-1.57,1.99-.36,5.04,2.17,5.28,1.02.1,1.96-.52,2.64.63.22.37,1.35,3.02,1.41,3.38.11.65-.08,1.11-.59,1.5l-2.88,1.19ZM10.26,15.84h2.59l-1.43-3.4c-.09-.88.38-1.22,1.07-1.55,3.35-1.63,7.09-2.81,10.47-4.44.62-.13,1.23-.01,1.59.55.69,1.63,1.42,3.26,2.1,4.89.26.62,1.03,2.16,1.1,2.7s-.11.86-.45,1.25h3.76c.53,0,1.31.62,1.25,1.22.04,0,.08,0,.11,0,.12,0,2.03-.79,2.16-.88.15-.11.17-.18.16-.37l-1.31-3.14c-.14-.17-.72.04-.93.06-4.21.25-6.28-4.76-3.16-7.72.15-.15.58-.33.58-.53-.41-.93-.74-1.98-1.2-2.88-.1-.19-.15-.46-.41-.44L7.75,9.83l.99,2.4c.03.58-.65.88-1.02.41-.32-.41-.62-1.55-.89-2.08-.04-.07-.12-.26-.18-.27l-5.44,2.31c-.16.13-.05.38,0,.54.26.86.86,1.85,1.2,2.7h6.59c.2-.83,1.1-.86,1.27,0ZM23.39,7.48l-10.78,4.59-.08.15,1.49,3.54.22.08h10.2c.17-.02,2.01-.79,2.09-.88.1-.11.08-.16.06-.29-.04-.25-.43-1.04-.56-1.35-.8-1.94-1.66-3.88-2.5-5.79-.04-.05-.08-.06-.14-.06ZM8.66,16.98v2.62c0,.51-1.06.43-1.06.08v-2.59l-.11-.11H1.55c-.14.12-.17.25-.19.42-.08.68-.07,2.27,0,2.97.06.65.61.52,1.16.74,3.65,1.44,3.54,6.68-.17,8.15-.51.2-.93.01-.99.68-.07.72-.07,2.26,0,2.97.02.15.08.42.27.42h5.86l.11-.11v-3.57c0-.3,1.06-.39,1.06.08v3.5l.11.11h22.2s.21-.12.23-.15l.02-3.52c-.07-.25-.81-.34-1.07-.45-3.35-1.38-3.74-6.18-.49-7.9.5-.27,1.07-.35,1.54-.59-.04-1.03.18-2.39.04-3.39-.01-.1-.1-.34-.19-.34H8.66Z"/>
  <path d="M24.9,20.2c.26.27.35.64.41,1-.16,2.43.21,5.13,0,7.53-.08.91-.58,1.41-1.48,1.48-3.62.31-7.67-.24-11.34,0-.9-.08-1.4-.48-1.48-1.41-.21-2.43.17-5.15,0-7.61.07-.87.54-1.33,1.41-1.41,3.72.21,7.73-.28,11.41,0,.41.03.78.11,1.07.41ZM24.1,20.93h-11.82l-.11.11v7.95l11.86.04.16-.38c-.15-2.37.18-4.96,0-7.31-.01-.15-.04-.28-.08-.41Z"/>
  <path d="M7.69,22.78c.27-.33.86-.15.96.25-.1,1,.15,2.3,0,3.26-.09.58-.96.58-1.06,0-.1-.63-.07-2.44,0-3.12.01-.14,0-.28.1-.39Z"/>
</svg>